<svg width="1440" height="18" viewBox="0 0 1440 18" fill="none" xmlns="http://www.w3.org/2000/svg">
<rect width="1440" height="18" fill="url(#paint0_linear_5_72)"/>
<g clip-path="url(#clip0_5_72)">
<rect width="16" height="14" transform="translate(1422 2)" fill="white"/>
<rect x="1422" y="2" width="16" height="14" fill="black"/>
<rect x="1422" y="2" width="15" height="13" fill="white"/>
<rect x="1423" y="3" width="14" height="12" fill="#BFBFBF"/>
<rect x="1423" y="3" width="13" height="11" fill="#DBDBDB"/>
<rect x="1424" y="4" width="12" height="10" fill="#BFBFBF"/>
</g>
<g filter="url(#filter0_iiii_5_72)">
<rect x="1422" y="2" width="16" height="14" fill="#BFBFBF"/>
</g>
<path fill-rule="evenodd" clip-rule="evenodd" d="M1426 5H1428V6H1429V7H1431V6H1432V5H1434V6H1433V7H1432V8H1431V9H1432V10H1433V11H1434V12H1432V11H1431V10H1429V11H1428V12H1426V11H1427V10H1428V9H1429V8H1428V7H1427V6H1426V5Z" fill="black"/>
<g clip-path="url(#clip1_5_72)">
<rect width="16" height="14" transform="translate(1388 2)" fill="white"/>
<rect x="1388" y="2" width="16" height="14" fill="black"/>
<rect x="1388" y="2" width="15" height="13" fill="white"/>
<rect x="1389" y="3" width="14" height="12" fill="#BFBFBF"/>
<rect x="1389" y="3" width="13" height="11" fill="#DBDBDB"/>
<rect x="1390" y="4" width="12" height="10" fill="#BFBFBF"/>
</g>
<g filter="url(#filter1_iiii_5_72)">
<rect x="1388" y="2" width="16" height="14" fill="#BFBFBF"/>
</g>
<rect x="1392" y="11" width="6" height="2" fill="black"/>
<g clip-path="url(#clip2_5_72)">
<rect width="16" height="14" transform="translate(1404 2)" fill="white"/>
<rect x="1404" y="2" width="16" height="14" fill="black"/>
<rect x="1404" y="2" width="15" height="13" fill="white"/>
<rect x="1405" y="3" width="14" height="12" fill="#BFBFBF"/>
<rect x="1405" y="3" width="13" height="11" fill="#DBDBDB"/>
<rect x="1406" y="4" width="12" height="10" fill="#BFBFBF"/>
</g>
<g filter="url(#filter2_iiii_5_72)">
<rect x="1404" y="2" width="16" height="14" fill="#BFBFBF"/>
</g>
<path fill-rule="evenodd" clip-rule="evenodd" d="M1416 4H1407V13H1416V4ZM1415 6H1408V12H1415V6Z" fill="black"/>
<path d="M4.99902 13V12.001H8.99512V13H4.99902ZM4 12.001V5.00244H4.99902V12.001H4ZM8.99512 12.001V5.00244H9.99951V12.001H8.99512ZM4.99902 5.00244V4.00342H8.99512V5.00244H4.99902ZM11.0039 13V7.00049H13.002V8.00488H12.0029V13H11.0039ZM14.001 13V7.00049H15V13H14.001ZM14.001 5.00244V4.00342H15V5.00244H14.001ZM18.502 7.00049V4.00342H19.501V7.00049H18.502ZM21.499 7.00049V4.00342H22.498V7.00049H21.499ZM24.4961 13V12.001H28.4922V13H24.4961ZM23.4971 12.001V5.00244H24.4961V12.001H23.4971ZM28.4922 12.001V5.00244H29.4966V12.001H28.4922ZM24.4961 5.00244V4.00342H28.4922V5.00244H24.4961ZM30.501 13V7.00049H32.499V8.00488H31.5V13H30.501ZM36.4951 13V8.00488H37.4941V13H36.4951ZM39.4976 13V8.00488H40.4966V13H39.4976ZM33.498 13V7.00049H36.4951V8.00488H34.4971V13H33.498ZM37.4941 8.00488V7.00049H39.4976V8.00488H37.4941ZM41.501 13V7.00049H42.5V13H41.501ZM41.501 5.00244V4.00342H42.5V5.00244H41.501ZM44.498 13V12.001H45.4971V13H44.498ZM43.499 12.001V5.00244H44.498V7.00049H45.4971V8.00488H44.498V12.001H43.499ZM47.4951 13V12.001H49.4932V13H47.4951ZM46.4961 12.001V7.00049H47.4951V12.001H46.4961ZM50.4922 13V12.001H49.4932V11.002H50.4922V7.00049H51.4912V13H50.4922ZM53.5 13V12.001H55.498V13H53.5ZM52.501 12.001V11.002H53.5V12.001H52.501ZM55.498 12.001V11.002H56.4971V12.001H55.498ZM54.499 11.002V10.0029H55.498V11.002H54.499ZM53.5 10.0029V9.00391H54.499V10.0029H53.5ZM52.501 9.00391V8.00488H53.5V9.00391H52.501ZM55.498 9.00391V8.00488H56.4971V9.00391H55.498ZM53.5 8.00488V7.00049H55.498V8.00488H53.5ZM57.4961 7.00049V4.00342H58.4951V7.00049H57.4961ZM60.4932 7.00049V4.00342H61.4922V7.00049H60.4932ZM69.9893 8.00488V5.00244H70.9937V8.00488H69.9893ZM64.9941 13V4.00342H69.9893V5.00244H65.9932V8.00488H69.9893V9.00391H65.9932V13H64.9941ZM72.9971 13V12.001H75.9941V13H72.9971ZM71.998 12.001V8.00488H72.9971V12.001H71.998ZM75.9941 12.001V8.00488H76.9932V12.001H75.9941ZM72.9971 8.00488V7.00049H75.9941V8.00488H72.9971ZM78.0029 13V7.00049H80.001V8.00488H79.002V13H78.0029ZM81.999 13V12.001H82.998V13H81.999ZM81 12.001V5.00244H81.999V7.00049H82.998V8.00488H81.999V12.001H81ZM83.9971 13V5.00244H84.9961V7.00049H85.9951V8.00488H84.9961V13H83.9971ZM84.9961 5.00244V4.00342H85.9951V5.00244H84.9961ZM87.9932 13V12.001H90.9902V13H87.9932ZM86.9941 12.001V8.00488H87.9932V12.001H86.9941ZM90.9902 12.001V8.00488H91.9893V12.001H90.9902ZM87.9932 8.00488V7.00049H90.9902V8.00488H87.9932ZM92.999 13V4.00342H93.998V13H92.999ZM94.9971 13V7.00049H95.9961V13H94.9971ZM94.9971 5.00244V4.00342H95.9961V5.00244H94.9971ZM97.9941 13V12.001H100.991V13H97.9941ZM96.9951 12.001V8.00488H97.9941V12.001H96.9951ZM100.991 12.001V8.00488H101.99V12.001H100.991ZM97.9941 8.00488V7.00049H100.991V8.00488H97.9941Z" fill="white"/>
<defs>
<filter id="filter0_iiii_5_72" x="1422" y="2" width="16" height="14" filterUnits="userSpaceOnUse" color-interpolation-filters="sRGB">
<feFlood flood-opacity="0" result="BackgroundImageFix"/>
<feBlend mode="normal" in="SourceGraphic" in2="BackgroundImageFix" result="shape"/>
<feColorMatrix in="SourceAlpha" type="matrix" values="0 0 0 0 0 0 0 0 0 0 0 0 0 0 0 0 0 0 127 0" result="hardAlpha"/>
<feOffset dx="2" dy="2"/>
<feComposite in2="hardAlpha" operator="arithmetic" k2="-1" k3="1"/>
<feColorMatrix type="matrix" values="0 0 0 0 0.858824 0 0 0 0 0.858824 0 0 0 0 0.858824 0 0 0 1 0"/>
<feBlend mode="normal" in2="shape" result="effect1_innerShadow_5_72"/>
<feColorMatrix in="SourceAlpha" type="matrix" values="0 0 0 0 0 0 0 0 0 0 0 0 0 0 0 0 0 0 127 0" result="hardAlpha"/>
<feOffset dx="-2" dy="-2"/>
<feComposite in2="hardAlpha" operator="arithmetic" k2="-1" k3="1"/>
<feColorMatrix type="matrix" values="0 0 0 0 0.501961 0 0 0 0 0.501961 0 0 0 0 0.501961 0 0 0 1 0"/>
<feBlend mode="normal" in2="effect1_innerShadow_5_72" result="effect2_innerShadow_5_72"/>
<feColorMatrix in="SourceAlpha" type="matrix" values="0 0 0 0 0 0 0 0 0 0 0 0 0 0 0 0 0 0 127 0" result="hardAlpha"/>
<feOffset dx="1" dy="1"/>
<feComposite in2="hardAlpha" operator="arithmetic" k2="-1" k3="1"/>
<feColorMatrix type="matrix" values="0 0 0 0 1 0 0 0 0 1 0 0 0 0 1 0 0 0 1 0"/>
<feBlend mode="normal" in2="effect2_innerShadow_5_72" result="effect3_innerShadow_5_72"/>
<feColorMatrix in="SourceAlpha" type="matrix" values="0 0 0 0 0 0 0 0 0 0 0 0 0 0 0 0 0 0 127 0" result="hardAlpha"/>
<feOffset dx="-1" dy="-1"/>
<feComposite in2="hardAlpha" operator="arithmetic" k2="-1" k3="1"/>
<feColorMatrix type="matrix" values="0 0 0 0 0 0 0 0 0 0 0 0 0 0 0 0 0 0 1 0"/>
<feBlend mode="normal" in2="effect3_innerShadow_5_72" result="effect4_innerShadow_5_72"/>
</filter>
<filter id="filter1_iiii_5_72" x="1388" y="2" width="16" height="14" filterUnits="userSpaceOnUse" color-interpolation-filters="sRGB">
<feFlood flood-opacity="0" result="BackgroundImageFix"/>
<feBlend mode="normal" in="SourceGraphic" in2="BackgroundImageFix" result="shape"/>
<feColorMatrix in="SourceAlpha" type="matrix" values="0 0 0 0 0 0 0 0 0 0 0 0 0 0 0 0 0 0 127 0" result="hardAlpha"/>
<feOffset dx="2" dy="2"/>
<feComposite in2="hardAlpha" operator="arithmetic" k2="-1" k3="1"/>
<feColorMatrix type="matrix" values="0 0 0 0 0.858824 0 0 0 0 0.858824 0 0 0 0 0.858824 0 0 0 1 0"/>
<feBlend mode="normal" in2="shape" result="effect1_innerShadow_5_72"/>
<feColorMatrix in="SourceAlpha" type="matrix" values="0 0 0 0 0 0 0 0 0 0 0 0 0 0 0 0 0 0 127 0" result="hardAlpha"/>
<feOffset dx="-2" dy="-2"/>
<feComposite in2="hardAlpha" operator="arithmetic" k2="-1" k3="1"/>
<feColorMatrix type="matrix" values="0 0 0 0 0.501961 0 0 0 0 0.501961 0 0 0 0 0.501961 0 0 0 1 0"/>
<feBlend mode="normal" in2="effect1_innerShadow_5_72" result="effect2_innerShadow_5_72"/>
<feColorMatrix in="SourceAlpha" type="matrix" values="0 0 0 0 0 0 0 0 0 0 0 0 0 0 0 0 0 0 127 0" result="hardAlpha"/>
<feOffset dx="1" dy="1"/>
<feComposite in2="hardAlpha" operator="arithmetic" k2="-1" k3="1"/>
<feColorMatrix type="matrix" values="0 0 0 0 1 0 0 0 0 1 0 0 0 0 1 0 0 0 1 0"/>
<feBlend mode="normal" in2="effect2_innerShadow_5_72" result="effect3_innerShadow_5_72"/>
<feColorMatrix in="SourceAlpha" type="matrix" values="0 0 0 0 0 0 0 0 0 0 0 0 0 0 0 0 0 0 127 0" result="hardAlpha"/>
<feOffset dx="-1" dy="-1"/>
<feComposite in2="hardAlpha" operator="arithmetic" k2="-1" k3="1"/>
<feColorMatrix type="matrix" values="0 0 0 0 0 0 0 0 0 0 0 0 0 0 0 0 0 0 1 0"/>
<feBlend mode="normal" in2="effect3_innerShadow_5_72" result="effect4_innerShadow_5_72"/>
</filter>
<filter id="filter2_iiii_5_72" x="1404" y="2" width="16" height="14" filterUnits="userSpaceOnUse" color-interpolation-filters="sRGB">
<feFlood flood-opacity="0" result="BackgroundImageFix"/>
<feBlend mode="normal" in="SourceGraphic" in2="BackgroundImageFix" result="shape"/>
<feColorMatrix in="SourceAlpha" type="matrix" values="0 0 0 0 0 0 0 0 0 0 0 0 0 0 0 0 0 0 127 0" result="hardAlpha"/>
<feOffset dx="2" dy="2"/>
<feComposite in2="hardAlpha" operator="arithmetic" k2="-1" k3="1"/>
<feColorMatrix type="matrix" values="0 0 0 0 0.858824 0 0 0 0 0.858824 0 0 0 0 0.858824 0 0 0 1 0"/>
<feBlend mode="normal" in2="shape" result="effect1_innerShadow_5_72"/>
<feColorMatrix in="SourceAlpha" type="matrix" values="0 0 0 0 0 0 0 0 0 0 0 0 0 0 0 0 0 0 127 0" result="hardAlpha"/>
<feOffset dx="-2" dy="-2"/>
<feComposite in2="hardAlpha" operator="arithmetic" k2="-1" k3="1"/>
<feColorMatrix type="matrix" values="0 0 0 0 0.501961 0 0 0 0 0.501961 0 0 0 0 0.501961 0 0 0 1 0"/>
<feBlend mode="normal" in2="effect1_innerShadow_5_72" result="effect2_innerShadow_5_72"/>
<feColorMatrix in="SourceAlpha" type="matrix" values="0 0 0 0 0 0 0 0 0 0 0 0 0 0 0 0 0 0 127 0" result="hardAlpha"/>
<feOffset dx="1" dy="1"/>
<feComposite in2="hardAlpha" operator="arithmetic" k2="-1" k3="1"/>
<feColorMatrix type="matrix" values="0 0 0 0 1 0 0 0 0 1 0 0 0 0 1 0 0 0 1 0"/>
<feBlend mode="normal" in2="effect2_innerShadow_5_72" result="effect3_innerShadow_5_72"/>
<feColorMatrix in="SourceAlpha" type="matrix" values="0 0 0 0 0 0 0 0 0 0 0 0 0 0 0 0 0 0 127 0" result="hardAlpha"/>
<feOffset dx="-1" dy="-1"/>
<feComposite in2="hardAlpha" operator="arithmetic" k2="-1" k3="1"/>
<feColorMatrix type="matrix" values="0 0 0 0 0 0 0 0 0 0 0 0 0 0 0 0 0 0 1 0"/>
<feBlend mode="normal" in2="effect3_innerShadow_5_72" result="effect4_innerShadow_5_72"/>
</filter>
<linearGradient id="paint0_linear_5_72" x1="1440" y1="9.00004" x2="2.56335e-07" y2="9.00008" gradientUnits="userSpaceOnUse">
<stop stop-color="#1085D2"/>
<stop offset="1" stop-color="#00007B"/>
</linearGradient>
<clipPath id="clip0_5_72">
<rect width="16" height="14" fill="white" transform="translate(1422 2)"/>
</clipPath>
<clipPath id="clip1_5_72">
<rect width="16" height="14" fill="white" transform="translate(1388 2)"/>
</clipPath>
<clipPath id="clip2_5_72">
<rect width="16" height="14" fill="white" transform="translate(1404 2)"/>
</clipPath>
</defs>
</svg>
